<svg
        xmlns="http://www.w3.org/2000/svg"
        xmlns:xlink="http://www.w3.org/1999/xlink"
        width="380px" height="26px">
    <path fill-rule="evenodd"  fill="rgb(151, 73, 164)"
          d="M371.114,17.096 L371.114,19.292 C371.114,20.923 371.396,22.087 371.960,22.783 C372.524,23.479 373.322,23.827 374.354,23.827 C376.321,23.827 377.305,22.591 377.305,20.119 L377.305,19.975 L379.717,19.975 L379.717,20.083 C379.717,22.027 379.243,23.491 378.295,24.475 C377.347,25.459 376.010,25.951 374.282,25.951 C370.538,25.951 368.666,23.743 368.666,19.328 L368.666,13.316 C368.666,11.157 369.152,9.525 370.124,8.421 C371.096,7.317 372.446,6.765 374.174,6.765 C375.902,6.765 377.263,7.317 378.259,8.421 C379.255,9.525 379.753,11.157 379.753,13.316 L379.753,17.096 L371.114,17.096 ZM377.341,13.316 C377.341,11.757 377.071,10.641 376.531,9.969 C375.991,9.297 375.218,8.961 374.210,8.961 C373.202,8.961 372.434,9.303 371.906,9.987 C371.378,10.671 371.114,11.804 371.114,13.388 L371.114,15.224 L377.341,15.224 L377.341,13.316 ZM359.343,0.862 L361.826,0.862 L361.826,4.101 L359.343,4.101 L359.343,0.862 ZM349.299,20.659 C349.299,21.619 349.527,22.333 349.983,22.801 C350.439,23.269 351.135,23.503 352.070,23.503 L352.574,23.503 L352.574,25.663 L351.962,25.663 C348.555,25.663 346.851,24.031 346.851,20.767 L346.851,8.961 L344.475,8.961 L344.475,7.053 L346.851,7.053 L346.851,3.166 L349.299,2.050 L349.299,7.053 L352.862,7.053 L352.862,8.961 L349.299,8.961 L349.299,20.659 ZM336.555,23.935 C335.715,25.279 334.455,25.951 332.775,25.951 C331.239,25.951 330.063,25.465 329.248,24.493 C328.432,23.521 328.024,22.159 328.024,20.407 C328.024,18.728 328.498,17.414 329.445,16.466 C330.393,15.518 331.767,15.044 333.567,15.044 L336.447,15.044 L336.447,12.056 C336.447,9.969 335.487,8.925 333.567,8.925 C332.679,8.925 331.995,9.165 331.515,9.645 C331.035,10.125 330.795,10.797 330.795,11.661 L330.795,11.948 L328.492,11.948 L328.492,11.625 C328.492,10.113 328.954,8.925 329.877,8.061 C330.801,7.197 332.031,6.765 333.567,6.765 C335.295,6.765 336.615,7.239 337.526,8.187 C338.438,9.135 338.894,10.461 338.894,12.164 L338.894,25.663 L336.555,25.663 L336.555,23.935 ZM336.447,16.880 L333.819,16.880 C331.587,16.880 330.471,18.044 330.471,20.371 C330.471,22.675 331.431,23.827 333.351,23.827 C334.335,23.827 335.097,23.521 335.637,22.909 C336.177,22.297 336.447,21.439 336.447,20.335 L336.447,16.880 ZM321.579,8.961 C320.595,8.961 319.791,9.273 319.167,9.897 C318.543,10.521 318.231,11.373 318.231,12.452 L318.231,25.663 L315.784,25.663 L315.784,7.053 L318.159,7.053 L318.159,8.889 C318.567,8.169 319.107,7.635 319.779,7.287 C320.451,6.939 321.207,6.765 322.047,6.765 C322.551,6.765 322.995,6.813 323.379,6.909 L323.379,9.285 C322.731,9.069 322.131,8.961 321.579,8.961 ZM305.956,20.659 C305.956,21.619 306.184,22.333 306.640,22.801 C307.096,23.269 307.791,23.503 308.727,23.503 L309.231,23.503 L309.231,25.663 L308.619,25.663 C305.212,25.663 303.508,24.031 303.508,20.767 L303.508,8.961 L301.132,8.961 L301.132,7.053 L303.508,7.053 L303.508,3.166 L305.956,2.050 L305.956,7.053 L309.519,7.053 L309.519,8.961 L305.956,8.961 L305.956,20.659 ZM290.764,14.612 L293.103,15.584 C294.375,16.112 295.329,16.748 295.965,17.492 C296.601,18.236 296.919,19.280 296.919,20.623 C296.919,22.303 296.421,23.611 295.425,24.547 C294.429,25.483 293.055,25.951 291.304,25.951 C289.624,25.951 288.298,25.477 287.326,24.529 C286.354,23.581 285.868,22.291 285.868,20.659 L285.868,20.443 L288.136,20.443 L288.136,20.659 C288.136,21.667 288.424,22.441 289.000,22.981 C289.576,23.521 290.368,23.791 291.376,23.791 C292.311,23.791 293.061,23.545 293.625,23.053 C294.189,22.561 294.471,21.811 294.471,20.803 C294.471,20.011 294.279,19.388 293.895,18.932 C293.511,18.476 292.863,18.056 291.952,17.672 L289.612,16.700 C287.236,15.716 286.048,14.096 286.048,11.840 C286.048,10.305 286.534,9.075 287.506,8.151 C288.478,7.227 289.780,6.765 291.412,6.765 C293.043,6.765 294.333,7.233 295.281,8.169 C296.229,9.105 296.703,10.365 296.703,11.948 L296.703,12.416 L294.435,12.416 L294.435,12.200 C294.435,11.145 294.171,10.329 293.643,9.753 C293.115,9.177 292.359,8.889 291.376,8.889 C290.488,8.889 289.786,9.135 289.270,9.627 C288.754,10.119 288.496,10.797 288.496,11.661 C288.496,12.308 288.664,12.872 289.000,13.352 C289.336,13.832 289.924,14.252 290.764,14.612 ZM276.941,0.862 L279.424,0.862 L279.424,4.101 L276.941,4.101 L276.941,0.862 ZM267.328,12.308 C267.328,11.229 267.064,10.401 266.536,9.825 C266.008,9.249 265.301,8.961 264.413,8.961 C263.549,8.961 262.847,9.255 262.307,9.843 C261.767,10.431 261.497,11.253 261.497,12.308 L261.497,25.663 L259.049,25.663 L259.049,7.053 L261.425,7.053 L261.425,8.745 C261.785,8.145 262.289,7.665 262.937,7.305 C263.585,6.945 264.305,6.765 265.097,6.765 C266.584,6.765 267.736,7.245 268.552,8.205 C269.368,9.165 269.776,10.497 269.776,12.200 L269.776,25.663 L267.328,25.663 L267.328,12.308 ZM249.402,0.862 L251.885,0.862 L251.885,4.101 L249.402,4.101 L249.402,0.862 ZM239.752,12.308 C239.752,11.229 239.494,10.401 238.978,9.825 C238.462,9.249 237.772,8.961 236.908,8.961 C236.020,8.961 235.306,9.255 234.766,9.843 C234.226,10.431 233.956,11.241 233.956,12.272 L233.956,25.663 L231.509,25.663 L231.509,12.308 C231.509,11.253 231.245,10.431 230.717,9.843 C230.189,9.255 229.481,8.961 228.593,8.961 C227.729,8.961 227.033,9.255 226.505,9.843 C225.977,10.431 225.714,11.253 225.714,12.308 L225.714,25.663 L223.230,25.663 L223.230,7.053 L225.642,7.053 L225.642,8.745 C226.001,8.145 226.499,7.665 227.135,7.305 C227.771,6.945 228.485,6.765 229.277,6.765 C230.165,6.765 230.957,6.975 231.653,7.395 C232.349,7.815 232.901,8.385 233.309,9.105 C233.765,8.361 234.346,7.785 235.054,7.377 C235.762,6.969 236.548,6.765 237.412,6.765 C238.996,6.765 240.196,7.239 241.012,8.187 C241.827,9.135 242.235,10.473 242.235,12.200 L242.235,25.663 L239.752,25.663 L239.752,12.308 ZM213.833,23.971 C213.017,25.291 211.830,25.951 210.270,25.951 C208.806,25.951 207.624,25.429 206.724,24.385 C205.824,23.341 205.374,21.751 205.374,19.616 L205.374,13.100 C205.374,10.965 205.824,9.375 206.724,8.331 C207.624,7.287 208.806,6.765 210.270,6.765 C211.830,6.765 213.017,7.461 213.833,8.853 L213.833,0.826 L216.281,0.826 L216.281,25.663 L213.833,25.663 L213.833,23.971 ZM213.833,13.424 C213.833,10.449 212.801,8.961 210.738,8.961 C208.794,8.961 207.822,10.437 207.822,13.388 L207.822,19.328 C207.822,20.911 208.068,22.045 208.560,22.729 C209.052,23.413 209.778,23.755 210.738,23.755 C211.746,23.755 212.513,23.383 213.041,22.639 C213.569,21.895 213.833,20.803 213.833,19.364 L213.833,13.424 ZM196.410,23.935 C195.570,25.279 194.310,25.951 192.630,25.951 C191.094,25.951 189.919,25.465 189.103,24.493 C188.287,23.521 187.879,22.159 187.879,20.407 C187.879,18.728 188.353,17.414 189.301,16.466 C190.249,15.518 191.622,15.044 193.422,15.044 L196.302,15.044 L196.302,12.056 C196.302,9.969 195.342,8.925 193.422,8.925 C192.534,8.925 191.850,9.165 191.370,9.645 C190.891,10.125 190.651,10.797 190.651,11.661 L190.651,11.948 L188.347,11.948 L188.347,11.625 C188.347,10.113 188.809,8.925 189.733,8.061 C190.657,7.197 191.886,6.765 193.422,6.765 C195.150,6.765 196.470,7.239 197.382,8.187 C198.294,9.135 198.750,10.461 198.750,12.164 L198.750,25.663 L196.410,25.663 L196.410,23.935 ZM196.302,16.880 L193.674,16.880 C191.442,16.880 190.327,18.044 190.327,20.371 C190.327,22.675 191.286,23.827 193.206,23.827 C194.190,23.827 194.952,23.521 195.492,22.909 C196.032,22.297 196.302,21.439 196.302,20.335 L196.302,16.880 ZM172.219,8.961 C171.235,8.961 170.431,9.273 169.807,9.897 C169.183,10.521 168.871,11.373 168.871,12.452 L168.871,25.663 L166.423,25.663 L166.423,7.053 L168.799,7.053 L168.799,8.889 C169.207,8.169 169.747,7.635 170.419,7.287 C171.091,6.939 171.847,6.765 172.687,6.765 C173.191,6.765 173.635,6.813 174.019,6.909 L174.019,9.285 C173.371,9.069 172.771,8.961 172.219,8.961 ZM151.160,19.292 C151.160,20.923 151.442,22.087 152.005,22.783 C152.569,23.479 153.367,23.827 154.399,23.827 C156.367,23.827 157.351,22.591 157.351,20.119 L157.351,19.975 L159.763,19.975 L159.763,20.083 C159.763,22.027 159.289,23.491 158.341,24.475 C157.393,25.459 156.055,25.951 154.327,25.951 C150.584,25.951 148.712,23.743 148.712,19.328 L148.712,13.316 C148.712,11.157 149.198,9.525 150.170,8.421 C151.142,7.317 152.491,6.765 154.219,6.765 C155.947,6.765 157.309,7.317 158.305,8.421 C159.301,9.525 159.799,11.157 159.799,13.316 L159.799,17.096 L151.160,17.096 L151.160,19.292 ZM157.387,15.224 L157.387,13.316 C157.387,11.757 157.117,10.641 156.577,9.969 C156.037,9.297 155.263,8.961 154.255,8.961 C153.247,8.961 152.479,9.303 151.951,9.987 C151.424,10.671 151.160,11.804 151.160,13.388 L151.160,15.224 L157.387,15.224 ZM140.287,25.663 L136.004,16.448 L133.484,20.155 L133.484,25.663 L131.036,25.663 L131.036,0.826 L133.484,0.826 L133.484,16.736 L139.711,7.053 L142.411,7.053 L137.515,14.216 L143.095,25.663 L140.287,25.663 ZM123.692,8.961 C122.708,8.961 121.904,9.273 121.280,9.897 C120.656,10.521 120.344,11.373 120.344,12.452 L120.344,25.663 L117.897,25.663 L117.897,7.053 L120.272,7.053 L120.272,8.889 C120.680,8.169 121.220,7.635 121.892,7.287 C122.564,6.939 123.320,6.765 124.160,6.765 C124.664,6.765 125.108,6.813 125.492,6.909 L125.492,9.285 C124.844,9.069 124.244,8.961 123.692,8.961 ZM102.633,19.292 C102.633,20.923 102.915,22.087 103.479,22.783 C104.042,23.479 104.840,23.827 105.872,23.827 C107.840,23.827 108.824,22.591 108.824,20.119 L108.824,19.975 L111.236,19.975 L111.236,20.083 C111.236,22.027 110.762,23.491 109.814,24.475 C108.866,25.459 107.528,25.951 105.800,25.951 C102.057,25.951 100.185,23.743 100.185,19.328 L100.185,13.316 C100.185,11.157 100.671,9.525 101.643,8.421 C102.615,7.317 103.964,6.765 105.692,6.765 C107.420,6.765 108.782,7.317 109.778,8.421 C110.774,9.525 111.272,11.157 111.272,13.316 L111.272,17.096 L102.633,17.096 L102.633,19.292 ZM108.860,15.224 L108.860,13.316 C108.860,11.757 108.590,10.641 108.050,9.969 C107.510,9.297 106.736,8.961 105.728,8.961 C104.720,8.961 103.952,9.303 103.425,9.987 C102.897,10.671 102.633,11.804 102.633,13.388 L102.633,15.224 L108.860,15.224 ZM88.592,25.663 L85.316,11.589 L82.112,25.663 L79.737,25.663 L75.525,7.053 L78.189,7.053 L80.997,21.703 L84.272,7.053 L86.360,7.053 L89.707,21.703 L92.515,7.053 L95.215,7.053 L90.931,25.663 L88.592,25.663 ZM62.061,19.292 C62.061,20.923 62.343,22.087 62.907,22.783 C63.471,23.479 64.269,23.827 65.301,23.827 C67.268,23.827 68.252,22.591 68.252,20.119 L68.252,19.975 L70.664,19.975 L70.664,20.083 C70.664,22.027 70.190,23.491 69.242,24.475 C68.294,25.459 66.956,25.951 65.229,25.951 C61.485,25.951 59.613,23.743 59.613,19.328 L59.613,13.316 C59.613,11.157 60.099,9.525 61.071,8.421 C62.043,7.317 63.393,6.765 65.121,6.765 C66.848,6.765 68.210,7.317 69.206,8.421 C70.202,9.525 70.700,11.157 70.700,13.316 L70.700,17.096 L62.061,17.096 L62.061,19.292 ZM68.288,15.224 L68.288,13.316 C68.288,11.757 68.018,10.641 67.478,9.969 C66.938,9.297 66.164,8.961 65.157,8.961 C64.149,8.961 63.381,9.303 62.853,9.987 C62.325,10.671 62.061,11.804 62.061,13.388 L62.061,15.224 L68.288,15.224 ZM50.541,23.971 C49.725,25.291 48.537,25.951 46.977,25.951 C45.513,25.951 44.331,25.429 43.432,24.385 C42.532,23.341 42.082,21.751 42.082,19.616 L42.082,13.100 C42.082,10.965 42.532,9.375 43.432,8.331 C44.331,7.287 45.513,6.765 46.977,6.765 C48.537,6.765 49.725,7.461 50.541,8.853 L50.541,0.826 L52.988,0.826 L52.988,25.663 L50.541,25.663 L50.541,23.971 ZM50.541,13.424 C50.541,10.449 49.509,8.961 47.445,8.961 C45.501,8.961 44.529,10.437 44.529,13.388 L44.529,19.328 C44.529,20.911 44.775,22.045 45.267,22.729 C45.759,23.413 46.485,23.755 47.445,23.755 C48.453,23.755 49.221,23.383 49.749,22.639 C50.277,21.895 50.541,20.803 50.541,19.364 L50.541,13.424 ZM27.142,19.292 C27.142,20.923 27.424,22.087 27.988,22.783 C28.552,23.479 29.350,23.827 30.381,23.827 C32.349,23.827 33.333,22.591 33.333,20.119 L33.333,19.975 L35.745,19.975 L35.745,20.083 C35.745,22.027 35.271,23.491 34.323,24.475 C33.375,25.459 32.037,25.951 30.309,25.951 C26.566,25.951 24.694,23.743 24.694,19.328 L24.694,13.316 C24.694,11.157 25.180,9.525 26.152,8.421 C27.124,7.317 28.474,6.765 30.201,6.765 C31.929,6.765 33.291,7.317 34.287,8.421 C35.283,9.525 35.781,11.157 35.781,13.316 L35.781,17.096 L27.142,17.096 L27.142,19.292 ZM33.369,15.224 L33.369,13.316 C33.369,11.757 33.099,10.641 32.559,9.969 C32.019,9.297 31.245,8.961 30.237,8.961 C29.230,8.961 28.462,9.303 27.934,9.987 C27.406,10.671 27.142,11.804 27.142,13.388 L27.142,15.224 L33.369,15.224 ZM15.405,6.585 L10.293,19.903 L8.565,19.903 L3.454,6.693 L3.454,25.663 L0.826,25.663 L0.826,0.826 L3.454,0.826 L9.465,16.160 L15.405,0.826 L18.032,0.826 L18.032,25.663 L15.405,25.663 L15.405,6.585 ZM251.849,25.663 L249.402,25.663 L249.402,7.053 L251.849,7.053 L251.849,25.663 ZM279.388,25.663 L276.941,25.663 L276.941,7.053 L279.388,7.053 L279.388,25.663 ZM361.790,25.663 L359.343,25.663 L359.343,7.053 L361.790,7.053 L361.790,25.663 Z"/>
</svg>
