<?xml version="1.0" standalone="no"?>
<!DOCTYPE svg PUBLIC "-//W3C//DTD SVG 20010904//EN"
 "http://www.w3.org/TR/2001/REC-SVG-20010904/DTD/svg10.dtd">
<svg version="1.0" xmlns="http://www.w3.org/2000/svg"
 width="480.000000pt" height="480.000000pt" viewBox="0 0 480.000000 480.000000"
 preserveAspectRatio="xMidYMid meet">
<metadata>
Created by potrace 1.11, written by Peter Selinger 2001-2013
</metadata>
<g transform="translate(0.000000,480.000000) scale(0.100000,-0.100000)"
fill="#000000" stroke="none">
<path d="M2165 4789 c-378 -36 -764 -174 -1088 -389 -134 -89 -311 -234 -403
-331 -631 -664 -836 -1596 -541 -2454 238 -691 791 -1244 1482 -1482 858 -295
1790 -89 2454 541 97 92 242 269 331 403 532 802 533 1844 1 2644 -188 283
-398 493 -680 681 -456 302 -1006 439 -1556 387z"/>
</g>
</svg>
