<svg xmlns="http://www.w3.org/2000/svg" width="526.3" height="139.2" viewBox="0 0 526.3 139.2"><style/><g id="Layer_4"><path d="M47.2 45.3h-4.6v19.5h4.6c6.5 0 8.2-2.5 8.2-9.4 0-7.1-.9-10.1-8.2-10.1z"/><path d="M69.6 0C31.2 0 0 31.2 0 69.6s31.2 69.6 69.6 69.6 69.6-31.2 69.6-69.6S108 0 69.6 0zM49.1 73.1h-6.5v29H30.7V36.9h19.2c11.7 0 16.7 6.8 16.7 18.5 0 12.8-6.9 17.7-17.5 17.7zm59.3-12.7H97v-5.6c0-5.5-.1-9.9-6.1-9.9-6.1 0-6.7 4.7-6.7 10.6v28.3c0 7.1 1.5 10.5 6.7 10.5 5.9 0 6.1-4.6 6.1-10.4V78h11.4v5.2c0 11.5-3.9 19.8-17.6 19.8-14.3 0-18.6-9-18.6-21.8V58c0-13.4 4.3-21.8 18.6-21.8 13.4 0 17.6 7.4 17.6 18.8v5.4zm49.8-23.5h8.9l11.5 52.9 11.6-52.9h8.9l1.2 65.3H193l-.7-47.4-11 47.4h-5.2l-11-47.4-.7 47.4H157l1.2-65.3zM208.7 92c0-11.6 8.4-15 18.4-18.9v-3.3c0-5.6-.6-8.4-4.7-8.4-3.5 0-4.9 2.6-4.9 6.6v2.3L209 70c.2-10.3 4.5-15.1 14-15.1 9.2 0 12.7 5.2 12.7 14.7v21.3c0 4.4.4 8.2.8 11.2h-7.9c-.3-1.7-.9-4.7-1.1-6.8-1.1 3.6-4.1 7.5-9.4 7.5-5.6 0-9.4-5.3-9.4-10.8zm18.3-.5V78.3c-5.3 3.1-9.8 5.6-9.8 11 0 3.8 1.5 6 4.1 6 2.6.1 5-2.6 5.7-3.8zm14.6-1.8l7.2-2.2c.8 6 2.7 8.9 6.7 8.9 3.1 0 4.8-1.9 4.8-4.9 0-2.7-1.1-4.7-3.8-6.9l-8-6.8c-3.2-2.7-5.7-5.9-5.7-11.4 0-7.3 4.8-11.4 12-11.4 7.4 0 11.3 5.5 11.8 12.2l-5.8 2.2c-.6-4.8-2-8.1-5.7-8.1-2.8 0-4.6 2.2-4.6 4.8 0 1.6.6 3.1 2.3 4.7l8.2 7.6c3.3 3.1 6.6 6.6 6.6 12.6 0 8-5.2 11.9-12.9 11.9s-12.4-5.3-13.1-13.2zm34.8 2V61.3h-4.9v-5.7h4.9V41.9h8.6v13.6h7.5v5.7H285V91c0 3.6.9 5.1 4.3 5.1.8 0 2.1-.1 3.1-.2v6.4c-2.2.3-3.8.5-6 .5-7.2 0-10-4.4-10-11.1zm21.6-7.5V73.5c0-12.3 3.1-18.6 13.8-18.6 11.7 0 13.2 7.6 13.2 20.3V79h-18.4v9.3c0 5.6 1.5 8.1 5.2 8.1 3.9 0 4.7-3 4.7-7.7v-2.8h8.4v1.8c0 9.3-3.6 15.1-13.1 15.1-11 0-13.8-6.5-13.8-18.6zm18.6-9.9v-4.2c0-5.7-.6-8.9-4.8-8.9s-5.1 2.5-5.1 10.6v2.5h9.9zm16.5-18.7h8.6v6.6c3.4-5.6 6.8-7.2 10.3-7.2.4 0 .7 0 1.4.1v9.5c-1.3-.5-3.1-1-4.8-1-2.7 0-4.8 1-6.9 4.5v34h-8.6V55.6zm42.8 28.3l8.1-2.2c.5 7 2.3 14 9.3 14 4.7 0 7.2-2.7 7.2-7.7 0-5.9-3-8.9-7.1-12.6l-11-9.7c-4.4-3.8-6.3-7.9-6.3-14.4 0-9.6 5.9-15.1 15.3-15.1 10.4 0 15.4 5.4 16.4 16.8l-7.7 2.1c-.5-6.4-1.9-11.9-8.7-11.9-4.5 0-7.2 2.4-7.2 7.2 0 3.9 1.2 6.2 4.3 8.9l11 9.7c4.9 4.4 9.3 10.2 9.3 18.3 0 9.7-6.5 15.6-15.6 15.6-11.3 0-16.6-7.8-17.3-19zm41.7 7.8V61.3h-4.9v-5.7h4.9V41.9h8.6v13.6h7.5v5.7h-7.5V91c0 3.6.9 5.1 4.3 5.1.8 0 2.1-.1 3.1-.2v6.4c-2.2.3-3.8.5-6 .5-7.3 0-10-4.4-10-11.1zm21.7-6.1V72.1c0-10.5 3.2-17.2 13.6-17.2 10.3 0 13.5 6.7 13.5 17.2v13.5c0 10.5-3.2 17.2-13.5 17.2-10.4 0-13.6-6.7-13.6-17.2zm18.5.6V71.6c0-5.2 0-10.3-4.9-10.3-5 0-5 5.1-5 10.3v14.6c0 5.2 0 10.2 5 10.2 4.9 0 4.9-5 4.9-10.2zm16.8-30.6h8.6v6.6c3.4-5.6 6.8-7.2 10.3-7.2.4 0 .7 0 1.4.1v9.5c-1.3-.5-3.1-1-4.8-1-2.7 0-4.8 1-6.9 4.5v34h-8.6V55.6zm24.7 28.6V73.5c0-12.3 3.1-18.6 13.8-18.6 11.7 0 13.2 7.6 13.2 20.3V79h-18.4v9.3c0 5.6 1.5 8.1 5.2 8.1 3.9 0 4.7-3 4.7-7.7v-2.8h8.4v1.8c0 9.3-3.6 15.1-13.1 15.1-11 0-13.8-6.5-13.8-18.6zm18.5-9.9v-4.2c0-5.7-.6-8.9-4.8-8.9s-5.1 2.5-5.1 10.6v2.5h9.9z"/></g></svg>