<svg xmlns="http://www.w3.org/2000/svg" width="380" height="26"><path fill-rule="evenodd" fill="#9749A4" d="M371.114 17.096v2.196c0 1.631.282 2.795.846 3.491.564.696 1.362 1.044 2.394 1.044 1.967 0 2.951-1.236 2.951-3.708v-.144h2.412v.108c0 1.944-.474 3.408-1.422 4.392-.948.984-2.285 1.476-4.013 1.476-3.744 0-5.616-2.208-5.616-6.623v-6.012c0-2.159.486-3.791 1.458-4.895.972-1.104 2.322-1.656 4.05-1.656 1.728 0 3.089.552 4.085 1.656.996 1.104 1.494 2.736 1.494 4.895v3.78h-8.639zm6.227-3.78c0-1.559-.27-2.675-.81-3.347-.54-.672-1.313-1.008-2.321-1.008-1.008 0-1.776.342-2.304 1.026-.528.684-.792 1.817-.792 3.401v1.836h6.227v-1.908zM359.343.862h2.483v3.239h-2.483V.862zm-10.044 19.797c0 .96.228 1.674.684 2.142.456.468 1.152.702 2.087.702h.504v2.16h-.612c-3.407 0-5.111-1.632-5.111-4.896V8.961h-2.376V7.053h2.376V3.166l2.448-1.116v5.003h3.563v1.908h-3.563v11.698zm-12.744 3.276c-.84 1.344-2.1 2.016-3.78 2.016-1.536 0-2.712-.486-3.527-1.458-.816-.972-1.224-2.334-1.224-4.086 0-1.679.474-2.993 1.421-3.941.948-.948 2.322-1.422 4.122-1.422h2.88v-2.988c0-2.087-.96-3.131-2.88-3.131-.888 0-1.572.24-2.052.72s-.72 1.152-.72 2.016v.287h-2.303v-.323c0-1.512.462-2.7 1.385-3.564.924-.864 2.154-1.296 3.69-1.296 1.728 0 3.048.474 3.959 1.422.912.948 1.368 2.274 1.368 3.977v13.499h-2.339v-1.728zm-.108-7.055h-2.628c-2.232 0-3.348 1.164-3.348 3.491 0 2.304.96 3.456 2.88 3.456.984 0 1.746-.306 2.286-.918.54-.612.81-1.47.81-2.574V16.88zm-14.868-7.919c-.984 0-1.788.312-2.412.936-.624.624-.936 1.476-.936 2.555v13.211h-2.447V7.053h2.375v1.836c.408-.72.948-1.254 1.62-1.602.672-.348 1.428-.522 2.268-.522.504 0 .948.048 1.332.144v2.376c-.648-.216-1.248-.324-1.8-.324zm-15.623 11.698c0 .96.228 1.674.684 2.142.456.468 1.151.702 2.087.702h.504v2.16h-.612c-3.407 0-5.111-1.632-5.111-4.896V8.961h-2.376V7.053h2.376V3.166l2.448-1.116v5.003h3.563v1.908h-3.563v11.698zm-15.192-6.047l2.339.972c1.272.528 2.226 1.164 2.862 1.908.636.744.954 1.788.954 3.131 0 1.68-.498 2.988-1.494 3.924-.996.936-2.37 1.404-4.121 1.404-1.68 0-3.006-.474-3.978-1.422-.972-.948-1.458-2.238-1.458-3.87v-.216h2.268v.216c0 1.008.288 1.782.864 2.322.576.54 1.368.81 2.376.81.935 0 1.685-.246 2.249-.738.564-.492.846-1.242.846-2.25 0-.792-.192-1.415-.576-1.871-.384-.456-1.032-.876-1.943-1.26l-2.34-.972c-2.376-.984-3.564-2.604-3.564-4.86 0-1.535.486-2.765 1.458-3.689.972-.924 2.274-1.386 3.906-1.386 1.631 0 2.921.468 3.869 1.404.948.936 1.422 2.196 1.422 3.779v.468h-2.268V12.2c0-1.055-.264-1.871-.792-2.447-.528-.576-1.284-.864-2.267-.864-.888 0-1.59.246-2.106.738-.516.492-.774 1.17-.774 2.034 0 .647.168 1.211.504 1.691.336.48.924.9 1.764 1.26zM276.941.862h2.483v3.239h-2.483V.862zm-9.613 11.446c0-1.079-.264-1.907-.792-2.483-.528-.576-1.235-.864-2.123-.864-.864 0-1.566.294-2.106.882-.54.588-.81 1.41-.81 2.465v13.355h-2.448V7.053h2.376v1.692c.36-.6.864-1.08 1.512-1.44a4.372 4.372 0 0 1 2.16-.54c1.487 0 2.639.48 3.455 1.44.816.96 1.224 2.292 1.224 3.995v13.463h-2.448V12.308zM249.402.862h2.483v3.239h-2.483V.862zm-9.65 11.446c0-1.079-.258-1.907-.774-2.483-.516-.576-1.206-.864-2.07-.864-.888 0-1.602.294-2.142.882-.54.588-.81 1.398-.81 2.429v13.391h-2.447V12.308c0-1.055-.264-1.877-.792-2.465-.528-.588-1.236-.882-2.124-.882-.864 0-1.56.294-2.088.882-.528.588-.791 1.41-.791 2.465v13.355h-2.484V7.053h2.412v1.692c.359-.6.857-1.08 1.493-1.44.636-.36 1.35-.54 2.142-.54.888 0 1.68.21 2.376.63.696.42 1.248.99 1.656 1.71.456-.744 1.037-1.32 1.745-1.728a4.637 4.637 0 0 1 2.358-.612c1.584 0 2.784.474 3.6 1.422.815.948 1.223 2.286 1.223 4.013v13.463h-2.483V12.308zm-25.919 11.663c-.816 1.32-2.003 1.98-3.563 1.98-1.464 0-2.646-.522-3.546-1.566-.9-1.044-1.35-2.634-1.35-4.769V13.1c0-2.135.45-3.725 1.35-4.769.9-1.044 2.082-1.566 3.546-1.566 1.56 0 2.747.696 3.563 2.088V.826h2.448v24.837h-2.448v-1.692zm0-10.547c0-2.975-1.032-4.463-3.095-4.463-1.944 0-2.916 1.476-2.916 4.427v5.94c0 1.583.246 2.717.738 3.401.492.684 1.218 1.026 2.178 1.026 1.008 0 1.775-.372 2.303-1.116.528-.744.792-1.836.792-3.275v-5.94zM196.41 23.935c-.84 1.344-2.1 2.016-3.78 2.016-1.536 0-2.711-.486-3.527-1.458-.816-.972-1.224-2.334-1.224-4.086 0-1.679.474-2.993 1.422-3.941s2.321-1.422 4.121-1.422h2.88v-2.988c0-2.087-.96-3.131-2.88-3.131-.888 0-1.572.24-2.052.72-.479.48-.719 1.152-.719 2.016v.287h-2.304v-.323c0-1.512.462-2.7 1.386-3.564.924-.864 2.153-1.296 3.689-1.296 1.728 0 3.048.474 3.96 1.422.912.948 1.368 2.274 1.368 3.977v13.499h-2.34v-1.728zm-.108-7.055h-2.628c-2.232 0-3.347 1.164-3.347 3.491 0 2.304.959 3.456 2.879 3.456.984 0 1.746-.306 2.286-.918.54-.612.81-1.47.81-2.574V16.88zm-24.083-7.919c-.984 0-1.788.312-2.412.936-.624.624-.936 1.476-.936 2.555v13.211h-2.448V7.053h2.376v1.836c.408-.72.948-1.254 1.62-1.602.672-.348 1.428-.522 2.268-.522.504 0 .948.048 1.332.144v2.376c-.648-.216-1.248-.324-1.8-.324zM151.16 19.292c0 1.631.282 2.795.845 3.491.564.696 1.362 1.044 2.394 1.044 1.968 0 2.952-1.236 2.952-3.708v-.144h2.412v.108c0 1.944-.474 3.408-1.422 4.392-.948.984-2.286 1.476-4.014 1.476-3.743 0-5.615-2.208-5.615-6.623v-6.012c0-2.159.486-3.791 1.458-4.895.972-1.104 2.321-1.656 4.049-1.656 1.728 0 3.09.552 4.086 1.656.996 1.104 1.494 2.736 1.494 4.895v3.78h-8.639v2.196zm6.227-4.068v-1.908c0-1.559-.27-2.675-.81-3.347-.54-.672-1.314-1.008-2.322-1.008s-1.776.342-2.304 1.026c-.527.684-.791 1.817-.791 3.401v1.836h6.227zm-17.1 10.439l-4.283-9.215-2.52 3.707v5.508h-2.448V.826h2.448v15.91l6.227-9.683h2.7l-4.896 7.163 5.58 11.447h-2.808zM123.692 8.961c-.984 0-1.788.312-2.412.936-.624.624-.936 1.476-.936 2.555v13.211h-2.447V7.053h2.375v1.836c.408-.72.948-1.254 1.62-1.602.672-.348 1.428-.522 2.268-.522.504 0 .948.048 1.332.144v2.376c-.648-.216-1.248-.324-1.8-.324zm-21.059 10.331c0 1.631.282 2.795.846 3.491.563.696 1.361 1.044 2.393 1.044 1.968 0 2.952-1.236 2.952-3.708v-.144h2.412v.108c0 1.944-.474 3.408-1.422 4.392-.948.984-2.286 1.476-4.014 1.476-3.743 0-5.615-2.208-5.615-6.623v-6.012c0-2.159.486-3.791 1.458-4.895.972-1.104 2.321-1.656 4.049-1.656 1.728 0 3.09.552 4.086 1.656.996 1.104 1.494 2.736 1.494 4.895v3.78h-8.639v2.196zm6.227-4.068v-1.908c0-1.559-.27-2.675-.81-3.347-.54-.672-1.314-1.008-2.322-1.008s-1.776.342-2.303 1.026c-.528.684-.792 1.817-.792 3.401v1.836h6.227zM88.592 25.663l-3.276-14.074-3.204 14.074h-2.375l-4.212-18.61h2.664l2.808 14.65 3.275-14.65h2.088l3.347 14.65 2.808-14.65h2.7l-4.284 18.61h-2.339zm-26.531-6.371c0 1.631.282 2.795.846 3.491.564.696 1.362 1.044 2.394 1.044 1.967 0 2.951-1.236 2.951-3.708v-.144h2.412v.108c0 1.944-.474 3.408-1.422 4.392-.948.984-2.286 1.476-4.013 1.476-3.744 0-5.616-2.208-5.616-6.623v-6.012c0-2.159.486-3.791 1.458-4.895.972-1.104 2.322-1.656 4.05-1.656 1.727 0 3.089.552 4.085 1.656.996 1.104 1.494 2.736 1.494 4.895v3.78h-8.639v2.196zm6.227-4.068v-1.908c0-1.559-.27-2.675-.81-3.347-.54-.672-1.314-1.008-2.321-1.008-1.008 0-1.776.342-2.304 1.026-.528.684-.792 1.817-.792 3.401v1.836h6.227zm-17.747 8.747c-.816 1.32-2.004 1.98-3.564 1.98-1.464 0-2.646-.522-3.545-1.566-.9-1.044-1.35-2.634-1.35-4.769V13.1c0-2.135.45-3.725 1.35-4.769.899-1.044 2.081-1.566 3.545-1.566 1.56 0 2.748.696 3.564 2.088V.826h2.447v24.837h-2.447v-1.692zm0-10.547c0-2.975-1.032-4.463-3.096-4.463-1.944 0-2.916 1.476-2.916 4.427v5.94c0 1.583.246 2.717.738 3.401.492.684 1.218 1.026 2.178 1.026 1.008 0 1.776-.372 2.304-1.116.528-.744.792-1.836.792-3.275v-5.94zm-23.399 5.868c0 1.631.282 2.795.846 3.491.564.696 1.362 1.044 2.393 1.044 1.968 0 2.952-1.236 2.952-3.708v-.144h2.412v.108c0 1.944-.474 3.408-1.422 4.392-.948.984-2.286 1.476-4.014 1.476-3.743 0-5.615-2.208-5.615-6.623v-6.012c0-2.159.486-3.791 1.458-4.895.972-1.104 2.322-1.656 4.049-1.656 1.728 0 3.09.552 4.086 1.656.996 1.104 1.494 2.736 1.494 4.895v3.78h-8.639v2.196zm6.227-4.068v-1.908c0-1.559-.27-2.675-.81-3.347-.54-.672-1.314-1.008-2.322-1.008-1.007 0-1.775.342-2.303 1.026-.528.684-.792 1.817-.792 3.401v1.836h6.227zM15.405 6.585l-5.112 13.318H8.565L3.454 6.693v18.97H.826V.826h2.628L9.465 16.16 15.405.826h2.627v24.837h-2.627V6.585zm236.444 19.078h-2.447V7.053h2.447v18.61zm27.539 0h-2.447V7.053h2.447v18.61zm82.402 0h-2.447V7.053h2.447v18.61z"/></svg>