<svg version="1.1" id="Layer_1" xmlns="http://www.w3.org/2000/svg" x="0" y="0" width="526" height="139.2" viewBox="0 0 526 139.2" xml:space="preserve"><style>.st0{fill:#fff}</style><g id="Layer_4_1_"><path class="st0" d="M47.7 45.3H43v20h4.7c6.7 0 8.4-2.6 8.4-9.6 0-7.4-.9-10.4-8.4-10.4z"/><path class="st0" d="M69.6 0C31.2 0 0 31.2 0 69.6s31.2 69.6 69.6 69.6 69.6-31.2 69.6-69.6S108 0 69.6 0zM49.3 73.3H43v29H31v-65h17.8c9.7 0 17.7 7.8 17.9 17.5.3 13.4-6.6 18.5-17.4 18.5zm58.7-13H97v-5.7c0-5.6-.1-10.1-6.2-10.1-6.2 0-6.8 4.8-6.8 10.8v28.9c0 7.3 1.5 10.7 6.8 10.7 6 0 6.2-4.7 6.2-10.6v-6h11v5.3c0 11.8-3.9 20.3-17.5 20.3-14.2 0-18.5-9.2-18.5-22.3V57.8c0-13.7 4.3-22.3 18.5-22.3 13.3 0 17.5 7.6 17.5 19.2v5.6zm50.1-23h8.9L178.5 90l11.6-52.7h8.9l1.2 65H193l-.7-47.2-11 47.2H176l-11-47.2-.7 47.2h-7.4l1.2-65zm49.7 54.9c0-11.6 8.8-15 19.2-18.9V70c0-5.6-.6-8.4-4.9-8.4-3.6 0-5.1 2.6-5.1 6.6v2.3l-8.9-.3c.2-10.3 4.7-15.1 14.6-15.1 9.6 0 13.3 5.2 13.3 14.7v21.3c0 4.4.4 8.2.8 11.2h-8.3c-.3-1.7-.9-4.7-1.1-6.8-1.1 3.6-4.3 7.5-9.8 7.5-5.8-.1-9.8-5.4-9.8-10.8zm19.2-.7V78.3c-5.3 3.1-9.8 5.6-9.8 11 0 3.8 1.5 6 4.1 6 2.6.1 5-2.6 5.7-3.8zm14.6-1.8l7.2-2.2c.8 6 2.7 8.9 6.7 8.9 3.1 0 4.8-1.9 4.8-4.9 0-2.7-1.1-4.7-3.8-6.9l-8-6.8c-3.2-2.7-5.7-5.9-5.7-11.4 0-7.3 4.8-11.4 12-11.4 7.4 0 11.3 5.5 11.8 12.2l-5.8 2.2c-.6-4.8-2-8.1-5.7-8.1-2.8 0-4.6 2.2-4.6 4.8 0 1.6.6 3.1 2.3 4.7l8.2 7.6c3.3 3.1 6.6 6.6 6.6 12.6 0 8-5.2 11.9-12.9 11.9s-12.4-5.3-13.1-13.2zm34.4 2V61.3h-5v-6h5v-14h9v14h8v6h-8v29.8c0 3.6.9 5.1 4.1 5.1.8 0 2-.1 2.9-.2v6.4c-2.2.3-3.8.5-6 .5-7.2-.1-10-4.5-10-11.2zm22-7.2V73.8c0-12.3 3.1-18.6 13.8-18.6 11.7 0 13.2 7.6 13.2 20.3v3.8h-18v9.4c0 5.7 1.5 8.2 5.3 8.2 3.9 0 4.7-3 4.7-7.8v-2.8h8v1.8c0 9.3-3.6 15.1-13.1 15.1-11.1 0-13.9-6.5-13.9-18.7zm19-10.2v-4.2c0-5.7-.6-8.9-4.8-8.9s-5.2 2.5-5.2 10.6v2.5h10zm16-18h9v6.6c3.5-5.6 7-7.2 10.6-7.2.4 0 .7 0 1.4.1v9.5c-1.3-.5-3.2-1-4.9-1-2.8 0-4.9 1-7.1 4.5v33.5h-9v-46zm42.9 27.6l8.1-2.2c.5 7 2.3 14 9.3 14 4.7 0 7.2-2.7 7.2-7.7 0-5.9-3-8.9-7.1-12.6l-11-9.7c-4.4-3.8-6.3-7.9-6.3-14.4 0-9.6 5.9-15.1 15.3-15.1 10.4 0 15.4 5.4 16.4 16.8l-7.7 2.1c-.5-6.4-1.9-11.9-8.7-11.9-4.5 0-7.2 2.4-7.2 7.2 0 3.9 1.2 6.2 4.3 8.9l11 9.7c4.9 4.4 9.3 10.2 9.3 18.3 0 9.7-6.5 15.6-15.6 15.6-11.3 0-16.6-7.8-17.3-19zM418 92V61.3h-5v-6h4v-14h9v14h8v6h-8v29.8c0 3.6.9 5.1 4.1 5.1.8 0 2-.1 2.9-.2v6c-2.1.3-3.6.5-5.6.5-6.9 0-9.4-4.2-9.4-10.5zm21-6.4V72.1c0-10.5 3.2-17.1 13.5-17.1S466 61.7 466 72.1v13.5c0 10.5-3.2 17.1-13.5 17.1S439 96 439 85.6zm19 .7V71.5c0-5.3 0-10.4-4.9-10.4-5.1 0-5.1 5.2-5.1 10.4v14.7c0 5.3 0 10.3 5.1 10.3 4.9.1 4.9-5 4.9-10.2zm16-30h9v6.6c3.5-5.6 7-7.2 10.6-7.2.4 0 .7 0 1.4.1v9.5c-1.3-.5-3.2-1-4.9-1-2.8 0-4.9 1-7.1 4.5v33.5h-9v-46zm25 28.2V73.8c0-12.3 3.1-18.6 13.8-18.6 11.7 0 13.2 7.6 13.2 20.3v3.8h-18v9.4c0 5.7 1.5 8.2 5.3 8.2 3.9 0 4.7-3 4.7-7.8v-2.8h8v1.8c0 9.3-3.6 15.1-13.1 15.1-11.1 0-13.9-6.5-13.9-18.7zm19-10.2v-4.2c0-5.7-.6-8.9-4.8-8.9s-5.2 2.5-5.2 10.6v2.5h10z"/></g></svg>