<svg xmlns="http://www.w3.org/2000/svg" width="23" height="26"><path fill-rule="evenodd" fill="#858585" d="M21.849 8.308a.576.576 0 0 0 .425-.175.577.577 0 0 0 .175-.425v-1.8c0-.666-.233-1.233-.7-1.699a2.311 2.311 0 0 0-1.699-.7h-2.4v-2.6a.579.579 0 0 0-.175-.425.581.581 0 0 0-.425-.175h-1.999a.58.58 0 0 0-.425.175.579.579 0 0 0-.175.425v2.6H8.052v-2.6a.583.583 0 0 0-.175-.425.583.583 0 0 0-.425-.175h-2a.581.581 0 0 0-.425.175.579.579 0 0 0-.175.425v2.6H2.453c-.667 0-1.234.233-1.7.7a2.311 2.311 0 0 0-.7 1.699v1.8c0 .167.058.308.175.425a.577.577 0 0 0 .425.175h21.196zM.653 9.908a.577.577 0 0 0-.425.175.576.576 0 0 0-.175.425v12.998c0 .666.233 1.233.7 1.699.466.467 1.033.7 1.7.7H20.05c.666 0 1.233-.233 1.699-.7.467-.466.7-1.033.7-1.699V10.508a.576.576 0 0 0-.175-.425.576.576 0 0 0-.425-.175H.653zm5.799 10.198v2a.577.577 0 0 1-.175.425.581.581 0 0 1-.425.175h-2a.583.583 0 0 1-.425-.175.581.581 0 0 1-.175-.425v-2c0-.166.059-.308.175-.425a.583.583 0 0 1 .425-.175h2c.167 0 .308.059.425.175a.579.579 0 0 1 .175.425zm0-6.399v2a.577.577 0 0 1-.175.425.581.581 0 0 1-.425.175h-2a.583.583 0 0 1-.425-.175.581.581 0 0 1-.175-.425v-2c0-.166.059-.308.175-.425a.583.583 0 0 1 .425-.175h2c.167 0 .308.059.425.175a.579.579 0 0 1 .175.425zm6.399 6.399v2a.577.577 0 0 1-.175.425.581.581 0 0 1-.425.175h-2a.583.583 0 0 1-.425-.175.581.581 0 0 1-.175-.425v-2c0-.166.059-.308.175-.425a.583.583 0 0 1 .425-.175h2c.167 0 .308.059.425.175a.579.579 0 0 1 .175.425zm0-6.399v2a.577.577 0 0 1-.175.425.581.581 0 0 1-.425.175h-2a.583.583 0 0 1-.425-.175.581.581 0 0 1-.175-.425v-2c0-.166.059-.308.175-.425a.583.583 0 0 1 .425-.175h2c.167 0 .308.059.425.175a.579.579 0 0 1 .175.425zm6.399 6.399v2a.577.577 0 0 1-.175.425.581.581 0 0 1-.425.175h-2a.583.583 0 0 1-.425-.175.581.581 0 0 1-.175-.425v-2c0-.166.059-.308.175-.425a.583.583 0 0 1 .425-.175h2c.167 0 .308.059.425.175a.579.579 0 0 1 .175.425zm0-6.399v2a.577.577 0 0 1-.175.425.581.581 0 0 1-.425.175h-2a.583.583 0 0 1-.425-.175.581.581 0 0 1-.175-.425v-2c0-.166.059-.308.175-.425a.583.583 0 0 1 .425-.175h2c.167 0 .308.059.425.175a.579.579 0 0 1 .175.425z"/></svg>