<svg xmlns="http://www.w3.org/2000/svg" width="21.56" height="21.562" viewBox="0 0 21.56 21.562"><path data-name="check-circle copy" d="M21.56 10.77a10.47 10.47 0 0 0-1.46-5.392 10.9 10.9 0 0 0-3.93-3.935 10.7 10.7 0 0 0-10.78 0 10.851 10.851 0 0 0-3.94 3.935 10.685 10.685 0 0 0 0 10.783 10.844 10.844 0 0 0 3.94 3.935 10.7 10.7 0 0 0 10.78 0 10.893 10.893 0 0 0 3.93-3.935 10.464 10.464 0 0 0 1.46-5.391zm-12.04 5.7a.639.639 0 0 1-.96 0l-4.52-4.522a.63.63 0 0 1 0-.957l.95-1a.709.709 0 0 1 .5-.217.676.676 0 0 1 .5.217l3.05 3.044 6.52-6.522a.682.682 0 0 1 1 0l.96 1a.649.649 0 0 1 0 .956z" fill="#fff" fill-rule="evenodd"/></svg>