<svg xmlns="http://www.w3.org/2000/svg" width="21.6" height="21.6" viewBox="0 0 21.6 21.6"><path d="M21.6 10.8c0-1.9-.5-3.8-1.5-5.4-.9-1.6-2.3-3-3.9-3.9-3.3-1.9-7.4-1.9-10.8 0-1.6.9-3 2.3-3.9 3.9-1.9 3.3-1.9 7.5 0 10.8.9 1.6 2.3 3 3.9 3.9 3.3 1.9 7.4 1.9 10.8 0 1.6-.9 3-2.3 3.9-3.9 1-1.7 1.5-3.5 1.5-5.4zM9.5 16.5c-.2.3-.6.3-.9.1l-.1-.1L4 11.9c-.3-.2-.3-.6-.1-.9H4l1-1c.1-.1.3-.2.5-.2s.4.1.5.2l3 3 6.5-6.5c.3-.3.7-.3 1 0l1 1c.3.2.3.7 0 .9l-8 8.1z" fill-rule="evenodd" clip-rule="evenodd" fill="#0090e3"/></svg>