<svg xmlns="http://www.w3.org/2000/svg" width="24" height="26"><path fill-rule="evenodd" fill="#858585" d="M21.474 14.77a10.39 10.39 0 0 0 0-3.527l2.116-1.26a.54.54 0 0 0 .277-.302.664.664 0 0 0 .025-.403 12.499 12.499 0 0 0-2.771-4.736.749.749 0 0 0-.353-.202.573.573 0 0 0-.403.051L18.249 5.65a9.656 9.656 0 0 0-3.073-1.763V1.418a.64.64 0 0 0-.126-.378.557.557 0 0 0-.328-.226 12.853 12.853 0 0 0-5.542 0 .558.558 0 0 0-.327.226.64.64 0 0 0-.126.378v2.469A9.66 9.66 0 0 0 5.653 5.65L3.537 4.391a.573.573 0 0 0-.403-.051.754.754 0 0 0-.353.202A12.512 12.512 0 0 0 .01 9.278a.671.671 0 0 0 .025.403.54.54 0 0 0 .278.302l2.116 1.26a10.34 10.34 0 0 0 0 3.527L.313 16.03a.544.544 0 0 0-.278.302.671.671 0 0 0-.025.403 12.512 12.512 0 0 0 2.771 4.736.754.754 0 0 0 .353.202.573.573 0 0 0 .403-.051l2.116-1.259a9.66 9.66 0 0 0 3.074 1.763v2.469c0 .134.042.26.126.378a.558.558 0 0 0 .327.226c1.848.404 3.695.404 5.542 0a.557.557 0 0 0 .328-.226.64.64 0 0 0 .126-.378v-2.469a9.656 9.656 0 0 0 3.073-1.763l2.116 1.259a.573.573 0 0 0 .403.051.749.749 0 0 0 .353-.202 12.499 12.499 0 0 0 2.771-4.736.664.664 0 0 0-.025-.403.542.542 0 0 0-.277-.302l-2.116-1.26zm-5.492-1.763c0 1.108-.395 2.057-1.184 2.846-.789.79-1.738 1.184-2.847 1.184-1.108 0-2.057-.394-2.846-1.184-.79-.789-1.184-1.738-1.184-2.846 0-1.109.394-2.058 1.184-2.847.789-.789 1.738-1.184 2.846-1.184 1.109 0 2.058.395 2.847 1.184.789.789 1.184 1.738 1.184 2.847z"/></svg>