<svg xmlns="http://www.w3.org/2000/svg" width="25.03" height="22.25" viewBox="0 0 25.03 22.25"><path data-name="exclamation-triangle copy" d="M24.77 19.114L14.33 1.027a1.954 1.954 0 0 0-1.1-.935 2.22 2.22 0 0 0-1.44 0 1.942 1.942 0 0 0-1.11.935L.25 19.114a2.2 2.2 0 0 0-.22 1.413 2.09 2.09 0 0 0 .7 1.217 1.935 1.935 0 0 0 1.34.5h20.87a1.959 1.959 0 0 0 1.35-.5 2.09 2.09 0 0 0 .7-1.217 2.267 2.267 0 0 0-.22-1.413zm-12.26-3.739a2 2 0 1 1-1.41 3.413 1.987 1.987 0 0 1 0-2.826 1.916 1.916 0 0 1 1.41-.587zM10.6 8.201a.562.562 0 0 1 .15-.413.493.493 0 0 1 .37-.153h2.78a.508.508 0 0 1 .37.153.562.562 0 0 1 .15.413l-.35 5.913a.461.461 0 0 1-.15.326.5.5 0 0 1-.37.152h-2.08a.5.5 0 0 1-.37-.152.437.437 0 0 1-.16-.326z" fill="#ff943f" fill-rule="evenodd"/></svg>