<svg xmlns="http://www.w3.org/2000/svg" width="24" height="25"><path fill-rule="evenodd" fill="#858585" d="M22.101 9.79c.459 0 .857.168 1.192.504.336.335.504.733.504 1.192v1.696c0 .46-.168.857-.504 1.193a1.63 1.63 0 0 1-1.192.503h-7.632v7.632c0 .46-.168.857-.504 1.193a1.63 1.63 0 0 1-1.192.503h-1.696c-.459 0-.857-.168-1.193-.503a1.633 1.633 0 0 1-.503-1.193v-7.632H1.749c-.459 0-.857-.168-1.193-.503a1.633 1.633 0 0 1-.503-1.193v-1.696c0-.459.168-.857.503-1.192a1.631 1.631 0 0 1 1.193-.504h7.632V2.158c0-.459.168-.857.503-1.192a1.631 1.631 0 0 1 1.193-.504h1.696c.459 0 .857.168 1.192.504.336.335.504.733.504 1.192V9.79h7.632z"/></svg>