<svg xmlns="http://www.w3.org/2000/svg" width="45" height="40" viewBox="0 0 45 40"><path d="M42.6 5.8c.6 0 1 .2 1.4.7s.5 1 .3 1.5L41 23.9c-.1.4-.3.8-.6 1-.3.3-.7.4-1.1.4H14l.9 4.9h22.6c.5 0 .9.1 1.2.4.3.3.5.6.6 1 1 1 1.4 2.1 1.4 3.5s-.5 2.5-1.4 3.5c-.9.9-2.1 1.4-3.5 1.4s-2.5-.5-3.5-1.4c-.9-.9-1.4-2.1-1.4-3.5 0-.9.2-1.7.7-2.4H20.5c.5.8.7 1.6.7 2.4 0 1.4-.5 2.5-1.4 3.5-.9.9-2.1 1.4-3.5 1.4s-2.5-.5-3.5-1.4c-.9-.9-1.4-2.1-1.4-3.4 0-1.3.4-2.4 1.3-3.4L7.4 3.4h-6c-.2 0-.5-.1-.6-.3-.2-.1-.3-.4-.3-.6v-.6c0-.3.1-.5.3-.6.1-.2.4-.3.6-.3h6.5c.5 0 .9.1 1.2.4.3.3.5.6.6 1.1l.6 3.4h32.3zM18.8 35.1c0-.7-.2-1.2-.7-1.7-.5-.5-1.1-.7-1.7-.7-.7 0-1.2.2-1.7.7-.5.5-.7 1.1-.7 1.7 0 .7.2 1.2.7 1.7.5.5 1.1.7 1.7.7.7 0 1.2-.2 1.7-.7.4-.5.7-1 .7-1.7zm17.1 2.4c.7 0 1.2-.2 1.7-.7.5-.5.7-1.1.7-1.7 0-.7-.2-1.2-.7-1.7-.5-.5-1.1-.7-1.7-.7-.7 0-1.2.2-1.7.7-.5.5-.7 1.1-.7 1.7 0 .7.2 1.2.7 1.7.4.5 1 .7 1.7.7zm2.9-14.6l3-14.6h-31l2.7 14.6h25.3z" fill-rule="evenodd" clip-rule="evenodd" fill="#fff"/></svg>