<svg xmlns="http://www.w3.org/2000/svg" width="20.38" height="23.25" viewBox="0 0 20.38 23.25"><path data-name="trash-alt copy 2" d="M8.73 8.533a.512.512 0 0 0-.16-.386.527.527 0 0 0-.39-.159H7.09a.5.5 0 0 0-.38.159.512.512 0 0 0-.16.386v9.821a.513.513 0 0 0 .16.387.5.5 0 0 0 .38.159h1.09a.527.527 0 0 0 .39-.159.513.513 0 0 0 .16-.387V8.533zm4.55-.545a.5.5 0 0 1 .38.159.512.512 0 0 1 .16.386v9.821a.513.513 0 0 1-.16.387.5.5 0 0 1-.38.159h-1.09a.545.545 0 0 1-.55-.546V8.533a.545.545 0 0 1 .55-.545h1.09zm6-4.365h-3.37l-1.54-2.592a2.225 2.225 0 0 0-1.91-1.045H7.91A2.225 2.225 0 0 0 6 1.031L4.46 3.623H1.09a1.048 1.048 0 0 0-.77.318 1.062 1.062 0 0 0-.32.773v.546a.512.512 0 0 0 .16.386.527.527 0 0 0 .39.159h.9v15.277a2.18 2.18 0 0 0 2.19 2.183h13.09a2.163 2.163 0 0 0 2.18-2.183V5.806h.91a.527.527 0 0 0 .39-.159.512.512 0 0 0 .16-.386v-.546a1.062 1.062 0 0 0-.32-.773 1.048 1.048 0 0 0-.77-.319zM7 3.623l.82-1.319a.271.271 0 0 1 .23-.136h4.27a.271.271 0 0 1 .23.136l.82 1.319H7zm9.73 2.182v15a.261.261 0 0 1-.09.181.257.257 0 0 1-.18.091H3.91a.257.257 0 0 1-.18-.091.261.261 0 0 1-.09-.181v-15h13.09z" fill="#c1170a" fill-rule="evenodd"/></svg>