<svg
xmlns="http://www.w3.org/2000/svg"
xmlns:xlink="http://www.w3.org/1999/xlink"
width="23px" height="26px">
<path fill-rule="evenodd"  fill="rgb(133, 133, 133)"
      d="M21.849,8.308 C22.016,8.308 22.158,8.250 22.274,8.133 C22.391,8.016 22.449,7.875 22.449,7.708 L22.449,5.908 C22.449,5.242 22.216,4.675 21.749,4.209 C21.283,3.742 20.716,3.509 20.050,3.509 L17.650,3.509 L17.650,0.909 C17.650,0.743 17.592,0.601 17.475,0.484 C17.358,0.368 17.217,0.309 17.050,0.309 L15.051,0.309 C14.884,0.309 14.742,0.368 14.626,0.484 C14.509,0.601 14.451,0.743 14.451,0.909 L14.451,3.509 L8.052,3.509 L8.052,0.909 C8.052,0.743 7.993,0.601 7.877,0.484 C7.760,0.368 7.618,0.309 7.452,0.309 L5.452,0.309 C5.285,0.309 5.144,0.368 5.027,0.484 C4.910,0.601 4.852,0.743 4.852,0.909 L4.852,3.509 L2.453,3.509 C1.786,3.509 1.219,3.742 0.753,4.209 C0.286,4.675 0.053,5.242 0.053,5.908 L0.053,7.708 C0.053,7.875 0.111,8.016 0.228,8.133 C0.345,8.250 0.486,8.308 0.653,8.308 L21.849,8.308 ZM0.653,9.908 C0.486,9.908 0.345,9.966 0.228,10.083 C0.111,10.199 0.053,10.341 0.053,10.508 L0.053,23.506 C0.053,24.172 0.286,24.739 0.753,25.205 C1.219,25.672 1.786,25.905 2.453,25.905 L20.050,25.905 C20.716,25.905 21.283,25.672 21.749,25.205 C22.216,24.739 22.449,24.172 22.449,23.506 L22.449,10.508 C22.449,10.341 22.391,10.199 22.274,10.083 C22.158,9.966 22.016,9.908 21.849,9.908 L0.653,9.908 ZM6.452,20.106 L6.452,22.106 C6.452,22.273 6.394,22.414 6.277,22.531 C6.160,22.647 6.019,22.706 5.852,22.706 L3.852,22.706 C3.686,22.706 3.544,22.647 3.427,22.531 C3.311,22.414 3.252,22.273 3.252,22.106 L3.252,20.106 C3.252,19.940 3.311,19.798 3.427,19.681 C3.544,19.565 3.686,19.506 3.852,19.506 L5.852,19.506 C6.019,19.506 6.160,19.565 6.277,19.681 C6.394,19.798 6.452,19.940 6.452,20.106 ZM6.452,13.707 L6.452,15.707 C6.452,15.874 6.394,16.015 6.277,16.132 C6.160,16.248 6.019,16.307 5.852,16.307 L3.852,16.307 C3.686,16.307 3.544,16.248 3.427,16.132 C3.311,16.015 3.252,15.874 3.252,15.707 L3.252,13.707 C3.252,13.541 3.311,13.399 3.427,13.282 C3.544,13.166 3.686,13.107 3.852,13.107 L5.852,13.107 C6.019,13.107 6.160,13.166 6.277,13.282 C6.394,13.399 6.452,13.541 6.452,13.707 ZM12.851,20.106 L12.851,22.106 C12.851,22.273 12.793,22.414 12.676,22.531 C12.559,22.647 12.418,22.706 12.251,22.706 L10.251,22.706 C10.085,22.706 9.943,22.647 9.826,22.531 C9.710,22.414 9.651,22.273 9.651,22.106 L9.651,20.106 C9.651,19.940 9.710,19.798 9.826,19.681 C9.943,19.565 10.085,19.506 10.251,19.506 L12.251,19.506 C12.418,19.506 12.559,19.565 12.676,19.681 C12.793,19.798 12.851,19.940 12.851,20.106 ZM12.851,13.707 L12.851,15.707 C12.851,15.874 12.793,16.015 12.676,16.132 C12.559,16.248 12.418,16.307 12.251,16.307 L10.251,16.307 C10.085,16.307 9.943,16.248 9.826,16.132 C9.710,16.015 9.651,15.874 9.651,15.707 L9.651,13.707 C9.651,13.541 9.710,13.399 9.826,13.282 C9.943,13.166 10.085,13.107 10.251,13.107 L12.251,13.107 C12.418,13.107 12.559,13.166 12.676,13.282 C12.793,13.399 12.851,13.541 12.851,13.707 ZM19.250,20.106 L19.250,22.106 C19.250,22.273 19.192,22.414 19.075,22.531 C18.958,22.647 18.817,22.706 18.650,22.706 L16.650,22.706 C16.484,22.706 16.342,22.647 16.225,22.531 C16.109,22.414 16.050,22.273 16.050,22.106 L16.050,20.106 C16.050,19.940 16.109,19.798 16.225,19.681 C16.342,19.565 16.484,19.506 16.650,19.506 L18.650,19.506 C18.817,19.506 18.958,19.565 19.075,19.681 C19.192,19.798 19.250,19.940 19.250,20.106 ZM19.250,13.707 L19.250,15.707 C19.250,15.874 19.192,16.015 19.075,16.132 C18.958,16.248 18.817,16.307 18.650,16.307 L16.650,16.307 C16.484,16.307 16.342,16.248 16.225,16.132 C16.109,16.015 16.050,15.874 16.050,15.707 L16.050,13.707 C16.050,13.541 16.109,13.399 16.225,13.282 C16.342,13.166 16.484,13.107 16.650,13.107 L18.650,13.107 C18.817,13.107 18.958,13.166 19.075,13.282 C19.192,13.399 19.250,13.541 19.250,13.707 Z"/>
</svg>