<svg
        xmlns="http://www.w3.org/2000/svg"
        xmlns:xlink="http://www.w3.org/1999/xlink"
        width="24px" height="26px">
    <path fill-rule="evenodd"  fill="rgb(133, 133, 133)"
          d="M21.474,14.770 C21.675,13.594 21.675,12.419 21.474,11.243 L23.590,9.983 C23.724,9.916 23.817,9.816 23.867,9.681 C23.917,9.547 23.926,9.412 23.892,9.278 C23.321,7.498 22.398,5.919 21.121,4.542 C21.020,4.441 20.903,4.374 20.768,4.340 C20.634,4.307 20.500,4.324 20.365,4.391 L18.249,5.650 C17.342,4.878 16.318,4.290 15.176,3.887 L15.176,1.418 C15.176,1.284 15.134,1.158 15.050,1.040 C14.966,0.923 14.857,0.847 14.722,0.814 C12.875,0.411 11.028,0.411 9.180,0.814 C9.046,0.847 8.937,0.923 8.853,1.040 C8.769,1.158 8.727,1.284 8.727,1.418 L8.727,3.887 C7.585,4.290 6.560,4.878 5.653,5.650 L3.537,4.391 C3.403,4.324 3.268,4.307 3.134,4.340 C3.000,4.374 2.882,4.441 2.781,4.542 C1.505,5.919 0.581,7.498 0.010,9.278 C-0.023,9.412 -0.015,9.547 0.035,9.681 C0.086,9.816 0.178,9.916 0.313,9.983 L2.429,11.243 C2.227,12.419 2.227,13.594 2.429,14.770 L0.313,16.030 C0.178,16.097 0.086,16.198 0.035,16.332 C-0.015,16.466 -0.023,16.601 0.010,16.735 C0.581,18.515 1.505,20.094 2.781,21.471 C2.882,21.572 3.000,21.639 3.134,21.673 C3.268,21.706 3.403,21.689 3.537,21.622 L5.653,20.363 C6.560,21.135 7.585,21.723 8.727,22.126 L8.727,24.595 C8.727,24.729 8.769,24.855 8.853,24.973 C8.937,25.090 9.046,25.166 9.180,25.199 C11.028,25.603 12.875,25.603 14.722,25.199 C14.857,25.166 14.966,25.090 15.050,24.973 C15.134,24.855 15.176,24.729 15.176,24.595 L15.176,22.126 C16.318,21.723 17.342,21.135 18.249,20.363 L20.365,21.622 C20.500,21.689 20.634,21.706 20.768,21.673 C20.903,21.639 21.020,21.572 21.121,21.471 C22.398,20.094 23.321,18.515 23.892,16.735 C23.926,16.601 23.917,16.466 23.867,16.332 C23.817,16.198 23.724,16.097 23.590,16.030 L21.474,14.770 ZM15.982,13.007 C15.982,14.115 15.587,15.064 14.798,15.853 C14.009,16.643 13.060,17.037 11.951,17.037 C10.843,17.037 9.894,16.643 9.105,15.853 C8.315,15.064 7.921,14.115 7.921,13.007 C7.921,11.898 8.315,10.949 9.105,10.160 C9.894,9.371 10.843,8.976 11.951,8.976 C13.060,8.976 14.009,9.371 14.798,10.160 C15.587,10.949 15.982,11.898 15.982,13.007 Z"/>
</svg>