<svg
        xmlns="http://www.w3.org/2000/svg"
        xmlns:xlink="http://www.w3.org/1999/xlink"
        width="24px" height="25px">
    <path fill-rule="evenodd"  fill="rgb(133, 133, 133)"
          d="M22.101,9.790 C22.560,9.790 22.958,9.958 23.293,10.294 C23.629,10.629 23.797,11.027 23.797,11.486 L23.797,13.182 C23.797,13.642 23.629,14.039 23.293,14.375 C22.958,14.710 22.560,14.878 22.101,14.878 L14.469,14.878 L14.469,22.510 C14.469,22.970 14.301,23.367 13.965,23.703 C13.630,24.038 13.232,24.206 12.773,24.206 L11.077,24.206 C10.618,24.206 10.220,24.038 9.884,23.703 C9.549,23.367 9.381,22.970 9.381,22.510 L9.381,14.878 L1.749,14.878 C1.290,14.878 0.892,14.710 0.556,14.375 C0.221,14.039 0.053,13.642 0.053,13.182 L0.053,11.486 C0.053,11.027 0.221,10.629 0.556,10.294 C0.892,9.958 1.290,9.790 1.749,9.790 L9.381,9.790 L9.381,2.158 C9.381,1.699 9.549,1.301 9.884,0.966 C10.220,0.630 10.618,0.462 11.077,0.462 L12.773,0.462 C13.232,0.462 13.630,0.630 13.965,0.966 C14.301,1.301 14.469,1.699 14.469,2.158 L14.469,9.790 L22.101,9.790 Z"/>
</svg>